<svg width="88" height="83" viewBox="0 0 88 83" fill="none" xmlns="http://www.w3.org/2000/svg">
<g filter="url(#filter0_d_1392_1454)">
<path d="M30.5458 42.9995C29.4582 44.2684 27.8269 45.5674 27.1471 46.0583C28.2347 46.6021 28.8842 49.7591 29.073 51.2696C29.1863 53.1577 29.4129 57.0926 29.4129 57.727C29.2316 59.7209 30.0926 62.183 30.5458 63.1648C31.2633 64.1089 33.0834 66.3822 34.6242 67.9229C36.1649 69.4637 40.6284 70.5286 42.6676 70.8684C44.9334 71.1328 50.4165 70.9817 54.223 68.2628C58.9811 64.8642 59.0944 62.1452 60.0007 60.3326C60.7258 58.8825 60.3028 55.8766 60.0007 54.5549C60.0762 54.0262 60.182 52.7423 60.0007 51.836C59.8195 50.9297 60.5294 49.4947 60.907 48.8905C61.4357 47.9842 62.4931 46.0357 62.4931 45.4919C61.2242 45.0387 59.6986 43.717 59.0944 43.1128C59.0189 43.2639 58.7092 43.7019 58.0748 44.2457C57.2818 44.9254 56.8286 45.2653 56.7154 45.3786C56.6247 45.4692 55.6202 46.0205 55.1293 46.2849C55.016 46.3982 54.3758 46.5312 53.8831 46.2849C53.6566 46.1716 53.43 46.0583 53.0901 45.7184C52.7503 45.2653 52.9391 44.8877 53.0901 44.5856C53.2412 44.359 53.5433 43.7925 53.5433 43.3394C52.3651 43.5207 50.3335 42.9618 49.4649 42.6597C49.2006 43.0373 48.5813 43.9285 48.2187 44.4723C47.7656 45.152 45.2732 45.4919 44.0271 45.3786C42.7809 45.2653 40.7417 43.9058 39.9487 42.6597C38.5892 43.1128 36.5123 43.1506 35.6438 43.1128L35.9836 43.566C36.4368 45.152 36.754 47.9389 34.3976 46.3982C31.4521 44.4723 31.9052 44.2457 30.5458 42.9995Z" fill="#71C562"/>
<path d="M30.5442 42.5462C29.3358 44.321 25.922 47.7801 21.9343 47.4176C17.9465 47.055 15.8922 45.605 15.3635 44.9252C14.2684 43.7546 12.2141 40.3257 12.7579 35.9755C13.3017 31.6252 15.7789 28.9516 16.9496 28.1586L19.5552 26.2327C19.3664 26.1949 19.1021 25.4397 19.5552 22.7207C20.0084 20.0018 22.0098 17.6605 22.9539 16.8298C23.7469 16.0367 26.058 14.4507 28.9581 14.4507C31.8583 14.4507 33.1876 14.9039 33.4897 15.1304C33.9806 15.2815 35.3929 15.9914 37.1149 17.6228C37.2055 17.7134 37.7569 17.3584 38.0212 17.1696L39.4939 15.4703C40.6268 14.3752 43.8895 12.2529 47.8773 12.5248C52.8619 12.8647 53.3151 13.3178 56.7137 15.357C60.1124 17.3962 60.6788 20.9081 61.0187 22.6074C61.1657 23.3423 61.1869 23.713 61.1574 23.8807C62.2345 23.2424 64.7897 22.3872 67.4761 23.5137C70.9881 24.9865 71.5545 25.4396 74.1601 29.1782C76.2446 32.169 75.5574 37.0706 74.9531 39.1475C74.8399 39.5251 74.2508 40.6656 72.8007 42.2063C71.3506 43.747 69.7797 44.5098 69.1755 44.6986C69.1377 44.7742 68.609 45.0385 66.7964 45.4917C64.9838 45.9448 63.4733 45.4539 62.9446 45.1518C62.2649 44.8875 60.6562 44.1322 59.6592 43.2259C58.6623 42.3196 58.4131 41.2622 58.4131 40.8468C58.111 41.4888 56.895 42.8181 54.448 42.9993C52.001 43.1806 49.8032 42.4706 49.0101 42.093C48.557 41.942 47.4694 41.4359 46.7444 40.6203C46.0193 39.8046 45.3849 38.7699 45.1584 38.3545C45.0073 38.9209 44.3653 40.2124 43.0059 40.8468C41.6464 41.4813 40.4002 42.0175 39.9471 42.2063C39.7205 42.3951 38.6783 42.7954 36.3219 42.886C33.9655 42.9767 31.6393 42.093 30.7708 41.6399L30.5442 42.5462Z" fill="#71C562"/>
<path d="M18.1981 47.1903C18.0169 46.6465 17.5939 46.3595 17.4051 46.284C18.2736 46.6238 20.4412 47.3262 22.1632 47.4169C23.8852 47.5075 24.8444 47.228 25.1087 47.077C25.5619 46.7371 26.5588 46.1027 26.9213 46.284C27.0346 46.284 27.9787 47.9455 28.2808 48.663L28.6206 49.6826L28.8472 51.1554C28.9227 51.3819 28.8699 51.9257 28.0542 52.2882C27.0346 52.7414 24.9954 52.6281 22.8429 51.8351C20.6905 51.0421 19.7842 50.1358 19.1044 49.3427C18.4247 48.5497 18.4247 47.87 18.1981 47.1903Z" fill="#71C562"/>
<path d="M70.7604 45.3784C70.7604 44.8052 70.345 44.2078 70.5338 44.1322C69.6653 44.4721 68.2907 45.5144 66.5688 45.605C64.8468 45.6956 63.5477 45.756 63.2834 45.605C62.8302 45.2651 62.4246 47.2683 62.0621 47.4495C61.9488 47.4495 61.0047 49.1111 60.7026 49.8286L60.3627 50.8482L60.1362 52.3209C60.0606 52.5475 60.1135 53.0913 60.9292 53.4538C61.9488 53.907 63.1701 53.1139 65.3226 52.3209C67.4751 51.5279 68.8278 48.1514 69.7408 47.6442C70.7604 47.0777 70.7604 46.1714 70.7604 45.3784Z" fill="#71C562"/>
<path d="M33.1505 45.0382C32.4254 44.6756 31.1113 43.3011 30.5449 42.6591L30.7714 41.9794C31.5644 42.2059 33.2638 42.7044 33.7169 42.8857C34.1701 43.0669 34.812 43.0367 35.0764 42.999L35.9827 44.3584C36.3452 44.9022 36.2848 45.1892 36.2093 45.2647C36.1337 45.378 35.8921 45.6499 35.5295 45.8312C35.0764 46.0577 34.0568 45.4913 33.1505 45.0382Z" fill="#71C562"/>
<path d="M56.593 44.9123C57.2618 44.4541 58.6192 43.3726 59.0927 42.6593L58.413 40.9599C57.5067 42.3194 56.2073 42.7234 55.738 42.8573C55.2409 42.9991 54.7878 42.9991 54.5612 43.1124C54.4425 43.3575 53.8265 43.6571 53.5416 44.2453C53.2567 44.8335 53.3761 45.3153 53.5416 45.6048C53.7159 45.8817 53.9607 45.8927 54.3446 46.0227C54.8244 46.1853 55.7571 45.4849 56.593 44.9123Z" fill="#71C562"/>
<path d="M44.3661 40.054C43.913 40.5978 41.3829 41.7911 40.1745 42.3198C40.1745 43.1355 41.836 44.1702 42.6668 44.5856C43.271 44.7366 44.8646 44.9708 46.4053 44.6989C47.9461 44.427 48.9354 42.9995 49.2375 42.3198L48.3312 41.9799C47.8781 41.8667 47.5382 41.5268 46.9718 41.0736C46.7064 40.8613 46.3298 40.3184 46.0655 39.9408C45.9522 39.8275 45.4613 39.1477 45.2724 38.8079L45.1592 38.5813V38.8079C45.0836 38.9967 44.8193 39.5103 44.3661 40.054Z" fill="#71C562"/>
</g>
<defs>
<filter id="filter0_d_1392_1454" x="0.634018" y="0.467026" width="86.9644" height="82.5269" filterUnits="userSpaceOnUse" color-interpolation-filters="sRGB">
<feFlood flood-opacity="0" result="BackgroundImageFix"/>
<feColorMatrix in="SourceAlpha" type="matrix" values="0 0 0 0 0 0 0 0 0 0 0 0 0 0 0 0 0 0 127 0" result="hardAlpha"/>
<feOffset/>
<feGaussianBlur stdDeviation="6.01698"/>
<feComposite in2="hardAlpha" operator="out"/>
<feColorMatrix type="matrix" values="0 0 0 0 0.733333 0 0 0 0 1 0 0 0 0 0 0 0 0 1 0"/>
<feBlend mode="normal" in2="BackgroundImageFix" result="effect1_dropShadow_1392_1454"/>
<feBlend mode="normal" in="SourceGraphic" in2="effect1_dropShadow_1392_1454" result="shape"/>
</filter>
</defs>
</svg>
